<svg xmlns="http://www.w3.org/2000/svg" viewBox="0 0 750 471" width="750" height="471">
  <rect width="750" height="471" fill="#fff" rx="40"/>
  <path fill="#1434CB" d="M278.2 334.2h-53.9l33.7-207.9h53.9l-33.7 207.9zM524.3 129.3c-10.7-4-27.4-8.3-48.3-8.3-53.3 0-90.8 28.3-91.1 68.8-.4 30 26.8 46.7 47.3 56.7 21 10.2 28 16.8 28 26 0 14-16.8 20.4-32.3 20.4-21.6 0-33-3.2-50.8-11l-7-3.3-7.6 46.8c12.6 5.8 35.9 10.9 60.1 11.1 56.7 0 93.4-28 93.9-71.3.2-23.8-14.2-41.8-45.3-56.7-18.9-9.7-30.4-16.1-30.4-25.9 0-8.7 9.8-18 31-18 17.7-.3 30.5 3.8 40.5 8l4.8 2.4 7.2-45.7zM661.6 126.3h-41.7c-12.9 0-22.6 3.7-28.3 17.3l-80.2 191.6h56.7l11.3-31.3h69.3l6.6 31.3h50l-43.7-208.9zm-66.6 134.8c4.5-12.1 21.6-58.7 21.6-58.7-.3.5 4.5-12.1 7.2-20l3.7 18.1 12.5 60.6h-45zM193.1 126.3l-52.8 141.7-5.6-28.8c-9.8-33-40.3-68.7-74.4-86.6l48.3 181.6h57.1l84.9-207.9h-57.5z"/>
  <path fill="#F9A533" d="M131.9 126.3H45.6l-.7 4c67.6 17.3 112.4 59 130.9 109.1l-18.9-95.8c-3.2-13.1-12.7-17-25-17.3z"/>
</svg>
